<?xml version="1.0" encoding="UTF-8" standalone="no"?>
<!DOCTYPE svg PUBLIC "-//W3C//DTD SVG 1.1//EN" "http://www.w3.org/Graphics/SVG/1.1/DTD/svg11.dtd">
<svg width="100%" height="100%" viewBox="0 0 375 210" version="1.1" xmlns="http://www.w3.org/2000/svg" xmlns:xlink="http://www.w3.org/1999/xlink" xml:space="preserve" style="fill-rule:evenodd;clip-rule:evenodd;stroke-linejoin:round;stroke-miterlimit:1.41421;">
    <g transform="matrix(0.0640655,0,0,0.0640655,168.488,97.4977)">
        <g transform="matrix(12.1338,0,0,12.1338,-87191.6,-87278.7)">
            <path d="M7184.26,7185.5C7191.58,7181.03 7199.98,7176.68 7204.72,7179.46C7209.43,7182.23 7209.75,7191.67 7209.43,7200.19C7208.96,7212.39 7203.57,7228.92 7193.89,7245.41C7185.14,7260.31 7174.64,7272.17 7165.01,7279C7156.53,7285 7146.94,7290.15 7141.58,7287C7136.23,7283.86 7136.04,7273.01 7137.13,7262.73C7138.38,7250.97 7143.63,7235.99 7152.41,7221.05C7162.07,7204.6 7173.85,7191.86 7184.26,7185.5" style="fill:white;fill-rule:nonzero;"/>
        </g>
        <g transform="matrix(12.1338,0,0,12.1338,-87191.6,-87278.7)">
            <path d="M7024.34,7133.28C7024.66,7126.39 7025.6,7118.76 7029.94,7116.28C7034.27,7113.81 7041.31,7116.87 7047.38,7120.08C7056.05,7124.66 7065.49,7134.34 7072.78,7147.13C7079.37,7158.69 7082.89,7170.46 7083.16,7179.85C7083.39,7188.12 7082.46,7196.89 7077.53,7199.69C7072.62,7202.5 7064.61,7198.86 7057.64,7194.48C7049.67,7189.48 7041.31,7180.44 7034.7,7168.85C7027.42,7156.09 7023.89,7143.07 7024.34,7133.28" style="fill:white;fill-rule:nonzero;"/>
        </g>
        <g transform="matrix(12.1338,0,0,12.1338,-87191.6,-87278.7)">
            <path d="M7274.76,7122.17C7280.86,7119.29 7287.9,7116.6 7292.16,7119.21C7296.41,7121.82 7297.22,7129.3 7297.43,7136.01C7297.72,7145.6 7293.99,7158.18 7286.53,7170.34C7279.78,7181.33 7271.35,7189.76 7263.39,7194.29C7256.37,7198.29 7248.35,7201.49 7243.52,7198.53C7238.7,7195.57 7237.91,7186.99 7238.28,7178.97C7238.7,7169.79 7242.4,7158.43 7249.16,7147.41C7256.6,7135.28 7266.1,7126.26 7274.76,7122.17" style="fill:white;fill-rule:nonzero;"/>
        </g>
        <g transform="matrix(12.1338,0,0,12.1338,-87191.6,-87278.7)">
            <path d="M7241.7,7242.71C7235.81,7239.39 7229.54,7235.19 7229.21,7230.2C7228.89,7225.23 7234.55,7220.25 7239.93,7216.21C7247.62,7210.44 7260.08,7206.23 7274.36,7205.31C7287.26,7204.48 7299.05,7206.5 7307.37,7210.39C7314.69,7213.82 7321.96,7218.52 7322.33,7224.17C7322.69,7229.81 7316.11,7235.41 7309.32,7239.74C7301.57,7244.69 7290.12,7248.23 7277.18,7249.06C7262.94,7249.98 7250.06,7247.42 7241.7,7242.71" style="fill:white;fill-rule:nonzero;"/>
        </g>
        <g transform="matrix(12.1338,0,0,12.1338,-87191.6,-87278.7)">
            <path d="M7336.41,7154.95C7339.82,7145.52 7344.19,7135.49 7349.58,7135.16C7354.96,7134.84 7360.51,7144.22 7365.05,7153.1C7371.52,7165.8 7376.45,7186.2 7377.88,7209.41C7379.17,7230.39 7377.33,7249.45 7373.36,7262.81C7369.88,7274.57 7365.01,7286.19 7358.89,7286.56C7352.8,7286.94 7346.54,7276.05 7341.65,7264.86C7336.06,7252.08 7331.89,7233.35 7330.6,7212.31C7329.17,7189.16 7331.56,7168.35 7336.41,7154.95" style="fill:white;fill-rule:nonzero;"/>
        </g>
        <g transform="matrix(12.1338,0,0,12.1338,-87191.6,-87278.7)">
            <path d="M7118.38,7170.12C7110.87,7167.08 7102.84,7163.14 7102.22,7157.9C7101.61,7152.68 7108.49,7146.99 7115.06,7142.31C7124.44,7135.63 7139.87,7130.22 7157.71,7128.13C7173.83,7126.25 7188.67,7127.46 7199.25,7130.91C7208.57,7133.95 7217.87,7138.34 7218.56,7144.28C7219.25,7150.19 7211.25,7156.61 7202.93,7161.71C7193.43,7167.53 7179.24,7172.16 7163.07,7174.05C7145.28,7176.12 7129.05,7174.43 7118.38,7170.12" style="fill:white;fill-rule:nonzero;"/>
        </g>
    </g>
</svg>
